<svg type_name="BatteryPack" width="300" height="55" xmlns="http://www.w3.org/2000/svg" xmlns:svg="http://www.w3.org/2000/svg">
	<path d="m6.00697,11.00052c0,-2.71689 2.28311,-5 5,-5l274.49756,0c2.71689,0 5,2.28311 5,5l0,32.82177c0,2.71689 -2.28311,5 -5,5l-274.49756,0c-2.71689,0 -5,-2.28311 -5,-5l0,-32.82177z" opacity="undefined" stroke="#cccccc" fill="#b2b2b2"/>
	<rect fill="#ffffff" x="55.51992" y="10.34962" width="229.36425" height="35.19413" rx="3" stroke-width="2" stroke="#666666" class="status"/>
	<text xml:space="preserve" text-anchor="middle" font-family="sans-serif" font-size="40" stroke-width="0" y="44.18634" x="213.18634" fill="#000000" transform="matrix(0.695039 0 0 0.734285 22.0549 6.48674)" class="bin" lengthAdjust="spacingAndGlyphs" stroke="#000000">-</text>
	<rect stroke="#ffffff" height="29.38775" width="37.55102" y="12.47959" x="12.61224" stroke-width="0" fill="#ffffff"/>
	<path stroke-width="0" fill="#191919" d="m40.82488,32.15028l-2.1761,0l0,0.77111l2.1761,0l0,-0.77111zm-8.11889,2.31333l0,0.77111l2.1761,0l0,0.77111l0.72537,0l0,-3.08443l-0.72537,0l0,1.54222l-2.1761,0l0,-0.00001zm0,3.08443l1.45073,0l0,-0.77111l-1.45073,0l0,0.77111zm1.45073,-0.77111l0.72537,0l0,-0.77111l-0.72537,0l0,0.77111zm-1.45073,-3.85555l-0.72537,0l0,1.54222l0.72537,0l0,-1.54222zm-4.02045,-15.76957l-2.47565,0l0,13.15885l2.47565,0l0,-13.15885zm2.47565,0l-1.23782,0l0,13.15885l1.23782,0l0,-13.15885zm7.4876,20.39622l2.1761,0l0,-0.77111l-2.1761,0l0,0.77111zm-3.7667,-5.39776l-2.1761,0l0,0.77111l2.1761,0l0,-0.77111zm6.66816,4.62665l0,-3.85555l-0.72537,0l0,3.85555l0.72537,0zm0.75136,-19.62511l-1.23782,0l0,13.15885l1.23782,0l0,-13.15885zm-15.53717,18.85401l-0.72537,0l0,0.77111l0.72537,0l0,-0.77111zm9.34805,-18.85401l-2.47565,0l0,13.15885l2.47565,0l0,-13.15885zm2.47565,0l-1.23782,0l0,13.15885l1.23782,0l0,-13.15885zm-0.66471,19.62511l0.72537,0l0,-3.85555l-0.72537,0l0,3.85555zm-17.82591,0.77111l3.62683,0l0,-0.77111l-2.90146,0l0,-0.77111l-0.72537,0l0,1.54222l0,-0.00001l0,0.00001zm0,-3.85555l0.72537,0l0,-0.77111l-0.72537,0l0,0.77111zm1.45073,1.54222l1.45073,0l0,-0.77111l-1.45073,0l0,0.77111zm5.94156,-0.77111l0,0.77111l1.45073,0l0,-0.77111l-1.45073,0zm-6.66692,-2.31333l0,0.77111l2.1761,0l0,-0.77111l-2.1761,0zm0.43571,-14.99846l-1.23782,0l0,13.15885l1.23782,0l0,-13.15885zm27.23214,-5.26354l-34.65908,0c-1.36656,0 -2.47565,1.17904 -2.47565,2.63177l0,26.31771c0,1.45274 1.10909,2.63177 2.47565,2.63177l34.65908,0c1.36656,0 2.47565,-1.17904 2.47565,-2.63177l0,-26.31771c0,-1.45274 -1.10909,-2.63177 -2.47565,-2.63177zm0,28.94948l-34.65908,0l0,-26.31771l34.65908,0l0,26.31771zm-29.70778,-23.68594l-2.47565,0l0,21.05416l2.47565,0l0,-21.05416zm2.03993,18.85401l0.72537,0l0,-0.77111l-0.72537,0l0,0.77111zm8.84302,-3.08443l-0.72537,0l0,1.54222l0.72537,0l0,-1.54222zm-2.90146,-0.77111l0,0.77111l2.1761,0l0,-0.77111l-2.1761,0zm-3.0401,2.31333l0,-1.54222l-0.72537,0l0,1.54222l0.72537,0zm2.31473,-0.77111l0.72537,0l0,-0.77111l-0.72537,0l0,0.77111zm-1.06701,-16.54068l-1.23782,0l0,13.15885l1.23782,0l0,-13.15885zm4.69383,18.0829l-0.72537,0l0,1.54222l0.72537,0l0,-1.54222zm-0.72537,2.31333l0,-0.77111l-2.1761,0l0,0.77111l2.1761,0zm17.07455,-20.39622l-2.47565,0l0,21.05416l2.47565,0l0,-21.05416z" stroke="#ffffff"/>
</svg>