<svg type_name="SequenceAlarm" width="132" height="127" xmlns="http://www.w3.org/2000/svg" xmlns:svg="http://www.w3.org/2000/svg">
  <path stroke="null" d="m18.59961,107.25586l47.49975,-85.23l47.49975,85.23l-94.99949,0l-0.00001,0z" stroke-opacity="null" stroke-width="null" fill="#fff"/>
  <path class="activeBlink" stroke="#999999" fill="#ff0000" d="m13.87606,117.97291l104.33054,0c3.55869,0 6.39391,-1.9224 7.57964,-5.14442c1.0914,-2.96023 0.51112,-6.24896 -1.54351,-8.95628l-50.65558,-91.69339l-0.50097,-0.56283c-1.88251,-2.11494 -4.38475,-3.27944 -7.04597,-3.27944c-2.66159,0 -5.16346,1.1645 -7.04409,3.27944l-0.50097,0.56283l-50.65746,91.69085c-2.05426,2.70774 -2.63679,5.99858 -1.54314,8.95628c1.18723,3.22244 4.02058,5.14695 7.58152,5.14695l-0.00001,0.00001zm52.16414,-93.32614l43.94673,79.54465l-87.89158,0l43.94485,-79.54465z"/>
  <path class="activeBlink" stroke="#7f7f7f" fill="#ff0000" d="m66.0402,39.90268c-3.45646,0 -6.25899,3.14855 -6.25899,7.03177l0,30.14195c0,3.88322 2.80253,7.03177 6.25899,7.03177s6.25899,-3.14855 6.25899,-7.03177l0,-30.14195c0.00225,-3.88322 -2.80027,-7.03177 -6.25899,-7.03177z"/>
  <circle class="activeBlink" stroke="#999999" fill="#ff0000" r="7" cy="94.60559" cx="65.97706"/>
</svg>