<svg type_name="StatusExtemporary" width="200" height="200" xmlns="http://www.w3.org/2000/svg" xmlns:svg="http://www.w3.org/2000/svg">
  <path stroke="null" fill="#242424" d="m10,89.27262c0,-43.259 36.02272,-78.2988 80.49522,-78.2988c44.4725,0 80.49522,35.0398 80.49522,78.2988c0,43.25901 -36.02272,78.29881 -80.49522,78.29881c-44.4725,0 -80.49522,-35.0398 -80.49522,-78.29881z"/>
  <path d="m12.13908,89.50002c0,-42.10734 34.97086,-76.21429 78.14475,-76.21429c43.17389,0 78.14475,34.10695 78.14475,76.21429c0,42.10735 -34.97086,76.2143 -78.14475,76.2143c-43.17389,0 -78.14475,-34.10695 -78.14475,-76.2143z" fill="#ffffff"/>
  <path class="status" d="m23.14285,89.83163c0,-36.29214 29.63181,-65.68877 66.21429,-65.68877c36.58247,0 66.21428,29.39663 66.21428,65.68877c0,36.29214 -29.63181,65.68877 -66.21428,65.68877c-36.58248,0 -66.21429,-29.39663 -66.21429,-65.68877z" fill="#242424"/>
  <path d="m54.96294,48.32286l74.28565,0l-37.14282,41.66504l37.14282,41.66504l-74.28573,0l37.14291,-41.66504l-37.14283,-41.66504z" stroke="#000000" fill="#ffffff"/>
</svg>