<svg type_name="StatusPickToLight"  width="102" height="102" xmlns="http://www.w3.org/2000/svg" xmlns:svg="http://www.w3.org/2000/svg">
  <path stroke-dasharray="5,2,2,2,2,2" stroke-width="6" d="m76.50725,57.92234l1.54603,-2.3438c1.63623,-2.3863 7.07295,-10.97196 7.07295,-19.20229c0,-18.08051 -15.60803,-32.79782 -34.78531,-32.79782c-19.17928,0 -34.77925,14.71731 -34.77925,32.79782c0,8.22272 5.441,16.80814 7.10974,19.25835c-0.04308,-0.05606 2.46555,3.69525 2.46555,3.69525c4.37814,6.46584 8.50437,12.58206 9.47903,20.04784c0.20885,1.59466 1.64027,2.79174 3.33996,2.79174l25.30022,0c1.69342,0 3.13114,-1.19708 3.34199,-2.78391c1.05052,-8.0491 5.35483,-14.57076 9.90908,-21.46316l0,-0.00001l0,0.00001l0,-0.00001l0.00001,-0.00001z" fill="#000000" class="status" stroke="white"/>
  <path d="m64.96753,84.58385l-27.46548,0c-1.29578,0 -2.34578,0.80837 -2.34578,1.8021c0,0.9953 1.05001,1.79738 2.34578,1.79738l27.46548,0c1.29168,0 2.34374,-0.80209 2.34374,-1.79738c0,-0.99214 -1.05205,-1.8021 -2.34374,-1.8021z" fill="#000000" stroke="white" class="status"/>
  <path d="m64.11328,89.92313l-25.75714,0c-1.21518,0 -2.19988,1.08864 -2.19988,2.4222c0,1.33778 0.9847,2.41586 2.19988,2.41586l5.32965,0c0.21872,1.65344 1.4887,2.92676 3.05359,2.92676l9.23504,0c1.56681,0 2.84065,-1.27331 3.05552,-2.92676l5.08356,0c1.21134,0 2.19796,-1.07809 2.19796,-2.41586c-0.00023,-1.33354 -0.98685,-2.4222 -2.19821,-2.4222l0.00002,0l0.00001,0z" fill="#000000" stroke="white" class="status"/>
</svg>