<svg type_name="StatusCamera"  width="60" height="40" xmlns="http://www.w3.org/2000/svg" xmlns:svg="http://www.w3.org/2000/svg">
	<path d="m43.12489,13.61333c0.25,-0.24999 14.24987,-8.24992 14.1246,-8.36338c0.12527,0.11346 0.37527,29.3632 0.24999,29.24974c0.12528,0.11346 -14.37459,-7.13648 -14.49987,-7.24993c0.12528,0.11345 -0.12472,-13.38643 0.12528,-13.63643z" stroke-opacity="null" stroke-width="null" stroke="null" fill="#ffffff"/>
	<rect rx="4" height="35.74968" width="39.99964" y="2.36344" x="1.87526" stroke-width="null" fill="#ffffff"/>
	<path fill="#666666" stroke="null" d="m58.3877,3.60527c-0.37988,-0.24474 -0.84961,-0.2543 -1.2373,-0.02442l-13.53711,8.03659l0,-4.82206c-0.00391,-3.75126 -2.79981,-6.79113 -6.25,-6.79538l-31.11328,0c-3.4502,0.00425 -6.24609,3.04412 -6.25,6.79538l0,26.83112c0.00391,3.75126 2.79981,6.79113 6.25,6.79538l31.11328,0c3.4502,-0.00425 6.24609,-3.04412 6.25,-6.79538l0,-4.73447l13.5376,8.03659c0.38721,0.22988 0.85742,0.22085 1.23682,-0.02389c0.37988,-0.24527 0.61231,-0.68962 0.61231,-1.16902l0,-30.96197c0,-0.47992 -0.23291,-0.92375 -0.61231,-1.16849zm-17.27539,30.02176c-0.00195,2.25097 -1.67969,4.07457 -3.75,4.07723l-31.11231,0c-2.07031,-0.00265 -3.74756,-1.82626 -3.75,-4.07723l0,-26.83165c0.00244,-2.25044 1.67969,-4.07457 3.75,-4.07723l31.11328,0c2.06982,0.00265 3.74756,1.82679 3.75,4.07723l-0.00098,26.83165zm15.3877,-0.18156l-12.88672,-7.65011l0,-11.08124l12.88672,-7.64958l0,26.38093zm0,0"/>
	<rect class="status" rx="5" height="26.74976" width="33.9997" y="6.62512" x="4.75023" stroke-width="null" stroke="#b2b2b2" fill="#000000"/>
</svg>