<svg type_name="StationBatteryPack" width="330" height="130" xmlns="http://www.w3.org/2000/svg" xmlns:svg="http://www.w3.org/2000/svg">
	<defs>
		<linearGradient y2="1" x2="1" y1="0" x1="0" id="grad3">
			<stop offset="0" stop-opacity="0.99609" stop-color="#b2b2b2"/>
			<stop offset="1" stop-opacity="0.9" stop-color="#ffffff"/>
		</linearGradient>
		<linearGradient y2="1" x2="1" y1="0" x1="0" id="grad4">
			<stop offset="0" stop-opacity="0.99609" stop-color="#7f7f7f"/>
			<stop stop-opacity="0.9" offset="1" stop-color="#ffffff"/>
		</linearGradient>
	</defs>
	<rect stroke="url(#grad4)" stroke-width="3" rx="15" height="107.99952" width="314.99815" y="8.00052" x="9.00699" fill="url(#grad3)"/>
	<text lengthAdjust="spacingAndGlyphs" class="value" transform="matrix(0.758176 0 0 0.70291 301.946 41.1578)" fill="#000000" x="-314.94296" y="8.43483" font-size="50" font-family="sans-serif" text-anchor="start" xml:space="preserve" font-weight="bold" font-style="normal">-</text>
	<path fill="#ffffff" d="m36.82543,38.1091l-0.94742,-3.44658c0.27765,-0.25315 0.53825,-0.52401 0.78424,-0.81386l3.31352,0.98474c0.3495,-0.52907 0.65028,-1.09106 0.91941,-1.67456l-2.46596,-2.48083c0.11812,-0.36453 0.22041,-0.73539 0.29348,-1.11764l3.32326,-0.86576c0.02436,-0.31896 0.04749,-0.63919 0.04749,-0.96575s-0.02436,-0.64552 -0.04749,-0.96449l-3.32326,-0.86576c-0.07428,-0.38225 -0.17657,-0.75311 -0.29348,-1.11764l2.46718,-2.48083c-0.27034,-0.58224 -0.57113,-1.14548 -0.92062,-1.67456l-3.31352,0.98347c-0.24477,-0.28859 -0.50659,-0.55945 -0.78424,-0.81386l0.94742,-3.44531c-0.50902,-0.362 -1.05092,-0.6759 -1.61231,-0.95563l-2.3868,2.56437c-0.3495,-0.12278 -0.70752,-0.22783 -1.07528,-0.30504l-0.83173,-3.45544c-0.30809,-0.02405 -0.61497,-0.04936 -0.92915,-0.04936s-0.62106,0.02531 -0.92793,0.04936l-0.83295,3.45544c-0.36776,0.07721 -0.72457,0.18226 -1.07528,0.30504l-2.3868,-2.56437c-0.56017,0.28352 -1.10085,0.59616 -1.60987,0.95942l0.94742,3.44531c-0.27765,0.25315 -0.53947,0.52528 -0.78302,0.8126l-3.31473,-0.98474c-0.3495,0.52907 -0.65028,1.09232 -0.91941,1.67582l2.46718,2.48083c-0.1169,0.36453 -0.2192,0.73539 -0.29348,1.11764l-3.32448,0.86576c-0.02314,0.31896 -0.04749,0.63919 -0.04749,0.96449s0.02436,0.64552 0.04749,0.96575l3.32448,0.86576c0.07428,0.38225 0.17657,0.75311 0.29348,1.11764l-2.46718,2.48083c0.26912,0.58224 0.56991,1.14548 0.91941,1.67456l3.31473,-0.98474c0.24355,0.28985 0.50537,0.55945 0.78302,0.81386l-0.94742,3.44658c0.50902,0.362 1.05092,0.67463 1.61109,0.95563l2.3868,-2.56437c0.35071,0.12278 0.70752,0.2291 1.07528,0.30504l0.83295,3.45417c0.30687,0.02531 0.61497,0.04936 0.92915,0.04936s0.62106,-0.02531 0.92915,-0.04936l0.83173,-3.45417c0.36776,-0.07721 0.72578,-0.18353 1.07528,-0.30504l2.3868,2.56437c0.55895,-0.28352 1.10085,-0.59616 1.60987,-0.95816l-0.00001,0.00001zm-6.83405,-6.07676c-2.28573,0 -4.13916,-1.92644 -4.13916,-4.30221s1.85343,-4.30095 4.13916,-4.30095s4.13794,1.92517 4.13794,4.30095s-1.85221,4.30221 -4.13794,4.30221zm18.86549,8.993c0.02314,-0.69235 -0.07307,-1.39736 -0.28008,-2.09352l1.51489,-2.24414c-0.22894,-0.44301 -0.4871,-0.86323 -0.78058,-1.24548l-2.58408,0.56325c-0.5212,-0.46073 -1.11425,-0.82019 -1.7487,-1.07714l-0.74405,-2.63145c-0.47005,-0.08607 -0.9462,-0.1329 -1.42843,-0.13417l-1.1861,2.45045c-0.33975,0.06835 -0.67951,0.16201 -1.01317,0.29491c-0.31296,0.12404 -0.60523,0.27846 -0.88531,0.4468l-2.44282,-1.03663c-0.36167,0.33162 -0.69169,0.68982 -0.99004,1.0784l1.10451,2.49095c-0.3154,0.62654 -0.53216,1.30117 -0.63202,2.00618l-2.30278,1.34167c0.02314,0.4911 0.09255,0.98221 0.19971,1.47457l2.56216,0.65691c0.2813,0.66324 0.65881,1.25687 1.11547,1.76316l-0.42865,2.70613c0.38968,0.29112 0.80372,0.54173 1.23359,0.75944l2.08845,-1.67076c0.65272,0.17847 1.33588,0.24682 2.02391,0.18986l1.76818,2.03403c0.24355,-0.07215 0.48589,-0.14936 0.72578,-0.24429c0.21311,-0.08354 0.41404,-0.18226 0.61497,-0.28226l0.04506,-2.7403c0.55408,-0.42908 1.02657,-0.9455 1.40286,-1.52647l2.63157,-0.16961c0.1851,-0.4544 0.33975,-0.92651 0.44813,-1.41129l-2.03244,-1.74924l0.00001,0.00004zm-5.06952,2.54032c-1.46253,0.5797 -3.09919,-0.18226 -3.65814,-1.70241s0.17414,-3.22255 1.63667,-3.80351c1.46253,-0.5797 3.10163,0.18226 3.66058,1.70241c0.55773,1.52014 -0.17657,3.22255 -1.6391,3.80351l-0.00001,0z" stroke="#666666"/>
</svg>
