<svg type_name="Info"  width="75" height="75" xmlns="http://www.w3.org/2000/svg" xmlns:svg="http://www.w3.org/2000/svg">
	<ellipse fill="#ffffff" cx="37.75" cy="37.36328" rx="31.37494" ry="32.24993" stroke="#ffffff"/>
	<path d="m37.42387,27.91625c-3.34592,0 -5.71678,2.70661 -5.71678,6.03808l0,20.5298c0,3.33476 2.37085,6.03643 5.71678,6.03643c3.34427,0 5.71348,-2.70168 5.71348,-6.03643l0,-20.5298c0,-3.33476 -2.3692,-6.03808 -5.71348,-6.03808z" stroke="#666666" fill="#518cc6" stroke-width="0.5"/>
	<path d="m37.44862,12.22086c-3.45647,0 -6.26123,2.79376 -6.26123,6.24033c0,3.44493 2.80477,6.23705 6.26123,6.23705c3.45317,0 6.25793,-2.79212 6.25793,-6.23705c0,-3.44657 -2.80477,-6.24033 -6.25793,-6.24033z" stroke="#4c4c4c" fill="#518cc6" stroke-width="0.5"/>
	<path d="m37.44862,0c-20.65135,0 -37.44862,16.74449 -37.44862,37.32197c0,20.58077 16.79892,37.32197 37.44862,37.32197c20.6497,0 37.44532,-16.74449 37.44532,-37.32197s-16.79562,-37.32197 -37.44532,-37.32197zm0,66.5093c-16.14722,0 -29.28344,-13.09401 -29.28344,-29.18733c0,-16.09332 13.13622,-29.18569 29.28344,-29.18569c16.14557,0 29.28014,13.09237 29.28014,29.18569c0,16.09332 -13.13457,29.18733 -29.28014,29.18733z" stroke="#4c4c4c" fill="#518cc6" stroke-width="0.5"/>
</svg>