<svg type_name="StatusSupportConnector"  width="55" height="55" xmlns="http://www.w3.org/2000/svg" xmlns:svg="http://www.w3.org/2000/svg">
  <ellipse stroke="#000000" fill="#ffffff" stroke-width="null" stroke-opacity="null" fill-opacity="null" cx="27.5283" cy="27.70648" rx="27.00943" ry="26.77112"/>
  <path wsUri="-1" class="status" stroke="#fcfcfc" d="m27.66889,3.35738c-13.72851,0 -24.85737,10.96521 -24.85737,24.49182c0,13.52662 11.12887,24.49182 24.85737,24.49182c13.72851,0 24.85737,-10.96521 24.85737,-24.49182c0,-13.52662 -11.12887,-24.49182 -24.85737,-24.49182zm14.3425,22.75276c-2.48163,2.8125 -6.33834,3.7427 -9.72301,2.67263l-12.29357,13.92937c-1.31008,1.48292 -3.5899,1.63459 -5.09496,0.34545s-1.66411,-3.53711 -0.35574,-5.02003l12.31068,-13.94453c-1.52729,-3.14279 -1.12366,-7.01692 1.346,-9.81425c2.33797,-2.6541 5.90564,-3.62474 9.14664,-2.82092l-4.71014,5.41267l1.54097,4.41675l4.65541,0.89144l4.72211,-5.42615c1.2793,3.05684 0.80897,6.69338 -1.54439,9.35758z" fill-opacity="null" stroke-opacity="null" stroke-width="NaN" fill="#000000"/>
</svg>