<svg type_name="StatusList"  width="55" height="55" xmlns="http://www.w3.org/2000/svg" xmlns:svg="http://www.w3.org/2000/svg">
	<path d="m52.70903,42.55641l-22.90813,-37.68292c-0.64709,-1.06562 -1.41399,-1.59799 -2.3009,-1.59799s-1.65363,0.53237 -2.30143,1.59799l-22.90813,37.68292c-0.6478,1.06562 -0.97144,2.32716 -0.97144,3.78491s0.32363,2.72017 0.97144,3.78491c0.64852,1.06562 1.41525,1.59828 2.30143,1.59828l45.81608,0c0.88637,0 1.65363,-0.53266 2.30108,-1.59828c0.64709,-1.06444 0.97197,-2.32686 0.97197,-3.78491s-0.32489,-2.71929 -0.97197,-3.78491z" fill="#ffffff" stroke="#000000"/>
	<path wsUri="-1" class="status" stroke="#000000" d="m47.72627,41.04207l-18.38017,-30.12124c-0.51919,-0.85179 -1.13451,-1.27732 -1.84611,-1.27732s-1.32678,0.42553 -1.84653,1.27732l-18.38017,30.12124c-0.51976,0.85179 -0.77942,1.86018 -0.77942,3.02541s0.25967,2.17433 0.77942,3.02541c0.52033,0.85178 1.13552,1.27756 1.84653,1.27756l36.76019,0c0.71117,0 1.32678,-0.42578 1.84625,-1.27756c0.51919,-0.85084 0.77985,-1.85995 0.77985,-3.02541s-0.26066,-2.17362 -0.77985,-3.02541z" fill="#000000" stroke-width="0"/>
</svg>