<svg type_name="StatusThread"  width="265" height="80" xmlns="http://www.w3.org/2000/svg" xmlns:svg="http://www.w3.org/2000/svg">
	<rect stroke-width="2" stroke="#e5e5e5" ry="14" rx="14" height="74.50018" width="260.49995" y="2.766" x="3.69701" stroke-linejoin="null" stroke-linecap="null" fill="#935555" />
	<rect stroke-width="2" class="status" ry="9" rx="9" height="62.5" width="185.92305" y="8.76609" x="71.73544" stroke-linejoin="null" stroke-linecap="null" fill="#e5e5e5" stroke="#ffffff" />
	<text textLength="20" lengthAdjust="spacingAndGlyphs" font-family="Segoe UI" font-size="50" font-weight="bold" fill="#4c4c4c" stroke-linecap="null" stroke-linejoin="null" stroke-width="0" x="92.68691" y="54.909" xml:space="preserve" transform="matrix(8.823022277809132,0,0,0.7635688711245039,-742.1085122129946,12.336241682344754) " stroke="#000000" >-</text>
	<path fill="#ffffff" stroke="null" d="m37.10345,33.66844c0,-3.12954 -2.5246,-5.67564 -5.62745,-5.67564c-3.10297,0 -5.62745,2.54622 -5.62745,5.67564c0,3.12954 2.52449,5.67564 5.62745,5.67564s5.62745,-2.54622 5.62745,-5.67564zm-9.40762,0c0,-2.10211 1.6959,-3.81253 3.78016,-3.81253c2.08426,0 3.78016,1.71042 3.78016,3.81253c0,2.10211 -1.69579,3.81253 -3.78016,3.81253c-2.08449,0 -3.78016,-1.71042 -3.78016,-3.81253z"/>
	<path fill="#ffffff" stroke="null" d="m39.02478,47.55315c-0.21857,-0.46463 -0.76963,-0.66283 -1.23042,-0.44215c-0.74975,0.35884 -1.53583,0.65545 -2.33631,0.88131c-0.33488,0.09449 -0.58865,0.37048 -0.65674,0.71445l-0.97712,4.92719c-0.09643,0.48652 -0.52352,0.83971 -1.01551,0.83971l-2.66548,0c-0.49199,0 -0.91896,-0.35308 -1.01551,-0.83971l-0.97712,-4.92719c-0.06821,-0.34397 -0.32209,-0.61996 -0.65674,-0.71445c-1.13091,-0.3192 -2.22228,-0.7753 -3.24384,-1.35562c-0.30312,-0.17216 -0.6764,-0.15799 -0.96569,0.03653l-4.1459,2.78752c-0.40927,0.27518 -0.95884,0.22021 -1.30686,-0.13056l-1.88477,-1.90102c-0.34791,-0.35089 -0.40218,-0.90517 -0.12945,-1.31805l2.76385,-4.1814c0.19298,-0.29189 0.20703,-0.66824 0.03622,-0.97396c-0.57551,-1.03043 -1.02773,-2.13126 -1.34411,-3.27162c-0.09369,-0.33775 -0.36733,-0.59369 -0.70839,-0.66237l-4.88536,-0.98548c-0.48239,-0.09726 -0.83258,-0.528 -0.83258,-1.0242l0,-2.6883c0,-0.4962 0.35008,-0.92683 0.83258,-1.0242l4.88536,-0.98548c0.34105,-0.06879 0.6147,-0.32485 0.70839,-0.66237c0.31649,-1.14059 0.76871,-2.24131 1.34411,-3.27162c0.1707,-0.3056 0.15665,-0.68207 -0.03622,-0.97396l-2.76363,-4.18093c-0.27284,-0.41288 -0.21846,-0.96705 0.12945,-1.31805l1.88477,-1.90091c0.34791,-0.35089 0.8976,-0.40563 1.30686,-0.13056l4.1459,2.78752c0.2893,0.19463 0.66269,0.20869 0.96569,0.03653c1.02156,-0.58032 2.11294,-1.03642 3.24384,-1.35562c0.33488,-0.09449 0.58865,-0.37048 0.65674,-0.71445l0.97712,-4.92719c0.09643,-0.48652 0.52352,-0.83971 1.01551,-0.83971l2.66548,0c0.49199,0 0.91896,0.35308 1.01551,0.83971l0.97712,4.92719c0.06821,0.34397 0.32209,0.61996 0.65674,0.71445c1.13091,0.3192 2.22228,0.7753 3.24384,1.35562c0.30312,0.17216 0.6764,0.15799 0.96569,-0.03653l4.1459,-2.78752c0.40927,-0.27518 0.95872,-0.22021 1.30686,0.13056l1.88477,1.90091c0.34791,0.35089 0.40218,0.90517 0.12945,1.31805l-2.76385,4.1814c-0.19298,0.29189 -0.20703,0.66824 -0.03622,0.97396c0.57539,1.03031 1.02762,2.13103 1.34411,3.27162c0.09369,0.33775 0.36733,0.59369 0.70839,0.66237l4.88536,0.98548c0.48239,0.09726 0.83258,0.528 0.83258,1.0242l0,2.6883c0,0.4962 -0.35008,0.92683 -0.83258,1.0242l-4.88536,0.98548c-0.34105,0.06879 -0.6147,0.32485 -0.70839,0.6626c-0.22954,0.82738 -0.53243,1.63898 -0.90034,2.41232c-0.22074,0.46382 -0.02674,1.02029 0.43314,1.2428c0.45988,0.22275 1.01174,0.02696 1.23225,-0.43685c0.33203,-0.69797 0.6171,-1.42361 0.85029,-2.16376l4.3407,-0.87555c1.34239,-0.27103 2.317,-1.47016 2.317,-2.85136l0,-2.6883c0,-1.3812 -0.9746,-2.58021 -2.31757,-2.85125l-4.34059,-0.87555c-0.28473,-0.9039 -0.64555,-1.78268 -1.07789,-2.62377l2.45559,-3.71504c0.75957,-1.14923 0.60819,-2.69222 -0.36025,-3.66895l-1.88477,-1.90091c-0.96855,-0.97673 -2.49844,-1.1293 -3.6378,-0.36333l-3.6835,2.47662c-0.83396,-0.43593 -1.70527,-0.79996 -2.6015,-1.08712l-0.86812,-4.37776c-0.26839,-1.35412 -1.45734,-2.33707 -2.82681,-2.33707l-2.66548,0c-1.36947,0 -2.55831,0.98295 -2.82704,2.33741l-0.86812,4.37776c-0.89622,0.28716 -1.76754,0.65107 -2.6015,1.08712l-3.68327,-2.47662c-1.13936,-0.76608 -2.66936,-0.61351 -3.6378,0.36333l-1.88477,1.90091c-0.96832,0.97673 -1.11982,2.5196 -0.36025,3.66895l2.45559,3.71504c-0.43223,0.8411 -0.79317,1.71976 -1.07789,2.62377l-4.3407,0.87555c-1.34285,0.2708 -2.31746,1.46993 -2.31746,2.85113l0,2.6883c0,1.3812 0.9746,2.58021 2.31757,2.85125l4.34059,0.87555c0.28461,0.90378 0.64555,1.78256 1.07789,2.62377l-2.45559,3.71504c-0.75957,1.14923 -0.60819,2.69222 0.36025,3.66895l1.88477,1.90091c0.96843,0.97673 2.49832,1.1293 3.6378,0.36333l3.6835,-2.47662c0.83396,0.43593 1.70516,0.79996 2.6015,1.08712l0.86812,4.37799c0.2685,1.354 1.45745,2.33707 2.82692,2.33707l2.66548,0c1.36947,0 2.55831,-0.98295 2.82704,-2.33741l0.86812,-4.37776c0.7117,-0.22805 1.41026,-0.50542 2.08266,-0.82738c0.46079,-0.22079 0.65709,-0.77645 0.43817,-1.24131z"/>
	<path fill="#ffffff" stroke="null" d="m39.47655,38.84477c0.13482,0.06983 0.27878,0.1029 0.42069,0.1029c0.33546,0 0.65914,-0.18495 0.82264,-0.50669c0.74495,-1.46521 1.13879,-3.11548 1.13879,-4.77243c0,-5.77405 -4.65765,-10.4717 -10.38279,-10.4717c-2.72364,0 -5.29737,1.05578 -7.24726,2.97316c-0.36528,0.35907 -0.3727,0.94896 -0.01668,1.31724c0.35602,0.36829 0.94078,0.37601 1.30606,0.01682c1.6029,-1.57595 3.71869,-2.44401 5.95765,-2.44401c4.70644,0 8.5355,3.86174 8.5355,8.60859c0,1.38212 -0.31466,2.70179 -0.93519,3.92235c-0.23263,0.45748 -0.05336,1.0189 0.40058,1.25375z"/>
	<path fill="#ffffff" stroke="null" d="m22.82989,29.68237c-0.4825,-0.16744 -1.00785,0.09127 -1.17387,0.57779c-0.37327,1.0945 -0.5626,2.24131 -0.5626,3.40829c0,5.77417 4.65776,10.4717 10.38279,10.4717c2.20183,0 4.30551,-0.68634 6.08379,-1.98514c0.41315,-0.3018 0.50558,-0.88431 0.20646,-1.301c-0.29912,-0.41669 -0.8768,-0.50991 -1.28995,-0.20823c-1.46111,1.06696 -3.19014,1.63103 -5.00042,1.63103c-4.70655,0 -8.5355,-3.86185 -8.5355,-8.60859c0,-0.96036 0.15539,-1.90333 0.46205,-2.80227c0.1659,-0.4864 -0.09049,-1.01637 -0.57277,-1.18357z"/>
	<path fill="#ffffff" stroke="null" d="m65.72151,51.71415l-2.67096,-0.53872c-0.1627,-0.48825 -0.35865,-0.96497 -0.58579,-1.4258l1.51115,-2.28602c0.58259,-0.88154 0.46651,-2.065 -0.27627,-2.81402l-1.23854,-1.24914c-0.74278,-0.74902 -1.91619,-0.86622 -2.79013,-0.27864l-2.26661,1.52409c-0.45691,-0.22909 -0.92959,-0.42671 -1.41369,-0.59069l-0.53415,-2.69383c-0.206,-1.03884 -1.11788,-1.79282 -2.16824,-1.79282l-1.75166,0c-1.05024,0 -1.96223,0.75398 -2.16824,1.79282l-0.53415,2.69383c-0.4841,0.16409 -0.95678,0.36172 -1.41369,0.59069l-2.26661,-1.52409c-0.87406,-0.58747 -2.04747,-0.4705 -2.79013,0.27864l-1.23854,1.24914c-0.74278,0.74914 -0.85886,1.9326 -0.27627,2.81402l1.51115,2.28602c-0.31238,0.63356 -0.56545,1.29708 -0.75466,1.97938c-0.13745,0.49551 0.14945,1.00945 0.64063,1.1482c0.4913,0.13863 1.00088,-0.15061 1.13845,-0.64612c0.20109,-0.72505 0.48856,-1.42453 0.85418,-2.07917c0.1707,-0.30572 0.15665,-0.68219 -0.03622,-0.97396l-1.81633,-2.74776c-0.09586,-0.14508 -0.07678,-0.33983 0.04547,-0.46313l1.23854,-1.24914c0.12225,-0.12319 0.31535,-0.14231 0.4592,-0.04586l2.72444,1.83188c0.2893,0.19463 0.66257,0.20869 0.96569,0.03653c0.6492,-0.36875 1.34262,-0.65868 2.06152,-0.86149c0.33488,-0.09449 0.58865,-0.37048 0.65674,-0.71445l0.642,-3.23774c0.03382,-0.17089 0.18395,-0.295 0.35682,-0.295l1.75166,0c0.17276,0 0.32289,0.12411 0.35682,0.295l0.642,3.23797c0.06821,0.34397 0.32209,0.61996 0.65674,0.71445c0.7189,0.20281 1.41243,0.49274 2.06152,0.86149c0.30301,0.17216 0.6764,0.15799 0.96569,-0.03653l2.72444,-1.83188c0.14385,-0.09668 0.33694,-0.07755 0.4592,0.04586l1.23854,1.24914c0.12214,0.1233 0.14122,0.31805 0.04547,0.46313l-1.81633,2.74776c-0.19298,0.29189 -0.20703,0.66824 -0.03622,0.97396c0.36562,0.65476 0.65309,1.35412 0.85418,2.07917c0.09369,0.33775 0.36733,0.59369 0.70839,0.66237l3.21025,0.6475c0.16944,0.03411 0.2925,0.18553 0.2925,0.35988l0,1.76666c0,0.17423 -0.12305,0.32565 -0.2925,0.35988l-3.21048,0.6475c-0.34105,0.06879 -0.6147,0.32485 -0.70839,0.66237c-0.20109,0.72505 -0.48856,1.42453 -0.85418,2.07917c-0.1707,0.30572 -0.15665,0.68219 0.03622,0.97396l1.81633,2.74776c0.09586,0.14508 0.07678,0.33983 -0.04547,0.46313l-1.23854,1.24914c-0.12214,0.1233 -0.31523,0.14243 -0.4592,0.04586l-2.72444,-1.83188c-0.2893,-0.19452 -0.66269,-0.20869 -0.96569,-0.03653c-0.6492,0.36875 -1.34262,0.65868 -2.06152,0.86149c-0.33488,0.09449 -0.58865,0.37048 -0.65674,0.71445l-0.642,3.23774c-0.03382,0.17089 -0.18395,0.295 -0.35682,0.295l-1.75166,0c-0.17276,0 -0.32289,-0.12411 -0.35682,-0.295l-0.642,-3.23797c-0.06821,-0.34397 -0.32209,-0.61996 -0.65674,-0.71445c-0.7189,-0.20281 -1.41243,-0.49274 -2.06152,-0.86149c-0.30312,-0.17216 -0.67651,-0.15799 -0.96569,0.03653l-2.72444,1.83188c-0.14385,0.09668 -0.33694,0.07755 -0.4592,-0.04586l-1.23854,-1.24914c-0.12214,-0.1233 -0.14122,-0.31805 -0.04547,-0.46313l1.81633,-2.74776c0.19298,-0.29189 0.20703,-0.66824 0.03622,-0.97396c-0.36562,-0.65476 -0.65309,-1.35412 -0.85418,-2.07917c-0.09369,-0.33775 -0.36733,-0.59369 -0.70839,-0.66237l-3.21025,-0.6475c-0.16944,-0.03411 -0.2925,-0.18553 -0.2925,-0.35988l0,-1.76666c0,-0.17423 0.12305,-0.32565 0.2925,-0.35988l0.19652,-0.03964c0.50021,-0.10095 0.8247,-0.59173 0.7245,-1.09622c-0.10009,-0.5045 -0.58613,-0.83119 -1.08703,-0.7307l-0.19652,0.03964c-1.02979,0.20788 -1.77737,1.12757 -1.77737,2.18692l0,1.76666c0,1.05923 0.74758,1.97904 1.7776,2.1868l2.67096,0.53872c0.1627,0.48825 0.35865,0.96497 0.58568,1.4258l-1.51115,2.28602c-0.58271,0.88154 -0.46651,2.065 0.27627,2.81402l1.23854,1.24914c0.74278,0.74914 1.91619,0.86622 2.79013,0.27864l2.26661,-1.52409c0.45691,0.22909 0.92959,0.42671 1.41369,0.59069l0.53415,2.69383c0.20623,1.03884 1.11811,1.79282 2.16847,1.79282l1.75166,0c1.05024,0 1.96223,-0.75398 2.16824,-1.79282l0.53415,-2.69383c0.4841,-0.16409 0.95678,-0.36172 1.41369,-0.59081l2.26661,1.52409c0.87406,0.58758 2.04747,0.4705 2.79013,-0.27864l1.23854,-1.24914c0.74278,-0.74914 0.85886,-1.9326 0.27627,-2.81402l-1.51115,-2.28602c0.22714,-0.46082 0.42309,-0.93755 0.58568,-1.4258l2.67096,-0.53872c1.0299,-0.20777 1.77748,-1.12745 1.77748,-2.1868l0,-1.76666c0.00011,-1.05923 -0.74746,-1.97892 -1.77748,-2.18669z"/>
	<path fill="#ffffff" stroke="null" d="m52.4125,51.43056c1.83358,0 3.32519,1.50439 3.32519,3.35367c0,0.51452 0.41361,0.93155 0.92365,0.93155s0.92365,-0.41715 0.92365,-0.93155c0,-2.8766 -2.32043,-5.21689 -5.1726,-5.21689s-5.1726,2.3403 -5.1726,5.21689s2.32043,5.21689 5.1726,5.21689c1.15524,0 2.24799,-0.37578 3.16021,-1.08655c0.40367,-0.31459 0.47805,-0.89964 0.16624,-1.30687c-0.31192,-0.40712 -0.89211,-0.48226 -1.29578,-0.16767c-0.58591,0.45644 -1.28812,0.69786 -2.03067,0.69786c-1.83358,0 -3.32519,-1.50439 -3.32519,-3.35367c0.00011,-1.8494 1.49173,-3.35367 3.32531,-3.35367z"/>
</svg>