<svg type_name="StatusSniffer" width="102" height="102" xmlns="http://www.w3.org/2000/svg" xmlns:svg="http://www.w3.org/2000/svg">
  <path class="status" d="m20.61692,26.76408l-7.15414,7.15469l0,65.21119l64.2508,0.16563l8.10933,-7.32048l0,-65.21103l-65.20599,0l0,0zm57.48653,7.03772l0,65.50346m0,-65.50346l8.10933,-7.17419m-8.10933,7.48611l-64.56269,-0.31192" fill="#000000" stroke="white"/>
  <ellipse cx="46.30682" cy="49.52273" fill="#ffffff" rx="5.75" ry="5.75" stroke="white"/>
  <ellipse cx="46.30682" cy="67.39773" fill="#ffffff" rx="5.75" ry="5.75" stroke="white"/>
  <ellipse cx="46.55682" cy="85.14773" fill="#ffffff" rx="5.75" ry="5.75" stroke="white" transform="matrix(1 0 0 1 0 0)"/>
  <path class="status" d="m74.78582,7.54394c0,2.61415 -5.57406,4.73333 -12.45,4.73333m12.45,-4.73333l0,0c0,2.61415 -5.57406,4.73333 -12.45,4.73333c-6.87594,0 -12.45,-2.11918 -12.45,-4.73333m0,0l0,0c0,-2.61414 5.57405,-4.73333 12.45,-4.73333c6.87595,0 12.45,2.11919 12.45,4.73333l0,18.93334c0,2.61414 -5.57406,4.73333 -12.45,4.73333c-6.87594,0 -12.45,-2.11918 -12.45,-4.73333l0,-18.93334z" fill="#000000" stroke="#000000" stroke-width="5"/>
</svg>